<?xml version="1.0" encoding="UTF-8"?>
<svg id="Layer_2" xmlns="http://www.w3.org/2000/svg" viewBox="0 0 379.84 206.97">
  <defs>
    <style>
      .cls-1, .cls-2 {
        stroke-linecap: round;
      }

      .cls-1, .cls-2, .cls-3 {
        fill: none;
        stroke: #000;
        stroke-width: 4.13px;
      }

      .cls-1, .cls-3 {
        stroke-miterlimit: 10;
      }

      .cls-2 {
        stroke-linejoin: round;
      }
    </style>
  </defs>
  <g id="Layer_1-2" data-name="Layer_1">
    <path class="cls-3" d="M261.83,204.9H12.06c-6.55,0-11.32-6.19-9.66-12.53L36.43,63.02c2.36-8.95,10.45-15.19,19.71-15.19h167.71c9.26,0,17.35,6.24,19.71,15.19l32.48,123.46c2.45,9.32-4.58,18.43-14.21,18.43Z"/>
    <path class="cls-3" d="M7.37,174.59s26.38,1.72,23.01,30.31"/>
    <path class="cls-3" d="M76.22,47.82c2.05-13.44,7.76-28.54,18.87-37.02,29.1-22.22,78.84.76,81.42,37.36"/>
    <path class="cls-3" d="M35.39,66.97s-12.5-14.33-4.24-38.11c4.98-14.34,19.2-23.57,34.28-21.81,6.97.81,15.25,3.34,24.75,8.83"/>
    <path class="cls-1" d="M110.41,48.17s-2.21-16.92,19.2-16.39"/>
    <path class="cls-2" d="M224.74,111.55s-39.12-.82-41.26,26.46c0,0-2.88,28.37,8.51,45.39-5.26,1.18-10.55,2.26-15.85,3.26-7.04,1.32-29.84-.81-22.06,12.18"/>
    <path class="cls-1" d="M276.04,186.47s33.17-50,54.32-47.99c4.36.41,8.69.92,12.5,3.37,6.53,4.2,11.29,18.35,2.03,21.88-5.15,1.96-14.88,2.93-17.77-3.06-3.57-7.39,1.98-16.82,5.54-23.12,8.92-15.79,29.69-14.85,45.12-11.18"/>
    <circle class="cls-3" cx="61.46" cy="136.35" r="6.89"/>
    <path class="cls-1" d="M62.31,167.85s14.53-22.12,32.82-11.75"/>
    <path class="cls-1" d="M63.91,178.89s22.26-12.59,38.68-5.15"/>
    <path class="cls-1" d="M64.8,191.17s27.25-8,42,1.75"/>
  </g>
</svg>